<?xml version="1.0" encoding="utf-8"?>
<!-- Generator: Adobe Illustrator 16.0.0, SVG Export Plug-In . SVG Version: 6.00 Build 0)  -->
<!DOCTYPE svg PUBLIC "-//W3C//DTD SVG 1.1//EN" "http://www.w3.org/Graphics/SVG/1.1/DTD/svg11.dtd">
<svg version="1.1" id="Layer_1" xmlns="http://www.w3.org/2000/svg" xmlns:xlink="http://www.w3.org/1999/xlink" x="0px" y="0px"
	 width="135px" height="135px" viewBox="0 0 135 135" style="enable-background:new 0 0 135 135;" xml:space="preserve">
<style type="text/css">
<![CDATA[
	.st0{fill:#465652;}
	.st1{fill:#AAB9BA;}
	.st2{fill:#47C67B;}
	.st3{fill:#AAC8D1;}
	.st4{fill:none;stroke:#E83834;stroke-width:6;stroke-linecap:round;stroke-linejoin:round;stroke-miterlimit:10;}
	.st5{fill:#7BC67B;}
	.st6{fill:#7BC7FF;}
	.st7{fill:#7C34C1;}
	.st8{fill:#7C8D96;}
	.st9{fill:#AD2707;}
	.st10{fill:#ADB8BC;}
	.st11{fill:#107510;}
	.st12{fill:#7FE5D8;}
	.st13{fill:#AF4AD1;}
	.st14{fill:#E02B7E;}
	.st15{fill:#E04038;}
	.st16{fill:#AFD7DD;}
	.st17{fill:#E0A010;}
	.st18{fill:#E0D5A4;}
	.st19{fill:#12B2B2;}
	.st20{fill:#12D66B;}
	.st21{fill:#E1A9FF;}
	.st22{fill:#1362A8;}
	.st23{fill:#E2378D;}
	.st24{fill:#E29C37;}
	.st25{fill:#E2B90E;}
	.st26{fill:#E2BF91;}
	.st27{fill:#E2CBAA;}
	.st28{fill:#14A594;}
	.st29{fill:#E4E9ED;}
	.st30{fill:#4A5D60;}
	.st31{fill:#E5B076;}
	.st32{fill:#E5B1C4;}
	.st33{fill:#E5E4C3;}
	.st34{fill:#4B6466;}
	.st35{fill:#E6FF2E;}
	.st36{fill:#18AA67;}
	.st37{fill:#E86207;}
	.st38{fill:#E8A113;}
	.st39{fill:#E8B5A6;}
	.st40{fill:#E8E8ED;}
	.st41{fill:#4E5154;}
	.st42{fill:#E9F1F4;}
	.st43{fill:#4F4B48;}
	.st44{fill:#4F74E8;}
	.st45{fill:#808E93;}
	.st46{fill:#80949B;}
	.st47{fill:#80EDAC;}
	.st48{fill:#B122E0;}
	.st49{fill:#B2C4CC;}
	.st50{fill:#83D839;}
	.st51{fill:#B3C6C6;}
	.st52{fill:none;stroke:#33363A;stroke-width:3;stroke-linecap:round;stroke-linejoin:round;stroke-miterlimit:10;}
	.st53{fill:#1A8E1C;}
	.st54{fill:#1A93D6;}
	.st55{fill:#B50B0B;}
	.st56{fill:#1AD88F;}
	.st57{fill:#B5DAF4;}
	.st58{fill:#EA7B1F;}
	.st59{fill:#EA81BD;}
	.st60{fill:#87B8D6;}
	.st61{fill:#87C3F4;}
	.st62{fill:#EAC79D;}
	.st63{fill:#EADF11;}
	.st64{fill:#EAE4C5;}
	.st65{fill:#B78094;}
	.st66{fill:#8844D8;}
	.st67{fill:#EBF4F7;}
	.st68{fill:#893015;}
	.st69{fill:#89410B;}
	.st70{fill:#899BA3;}
	.st71{fill:#EDE3B9;}
	.st72{enable-background:new    ;}
	.st73{fill:#50FF9F;}
	.st74{fill:#EEDCF4;}
	.st75{fill:#EFA37D;}
	.st76{fill:#EFA3CC;}
	.st77{fill:#EFC99A;}
	.st78{fill:#54AF79;}
	.st79{fill:#BA503A;}
	.st80{fill:#BA8663;}
	.st81{fill:#8B4FE0;}
	.st82{fill:#58ED9B;}
	.st83{fill:#BC7DFF;}
	.st84{fill:#8D9AA3;}
	.st85{fill:#BCCAD3;}
	.st86{fill:#8DE4FF;}
	.st87{fill:#20B518;}
	.st88{fill:#BF44F2;}
	.st89{fill:#21CEA1;}
	.st90{fill:#BFDAE0;}
	.st91{fill:#F0FBFC;}
	.st92{fill:#F2D9A7;}
	.st93{fill:#F2EAC9;}
	.st94{fill:#24D1AF;}
	.st95{fill:#25931C;}
	.st96{fill:#F4C4B3;}
	.st97{fill:#F4D3A2;}
	.st98{fill:#F4D647;}
	.st99{fill:#F4D7B8;}
	.st100{fill:#F4EC8E;}
	.st101{fill:#5B524D;}
	.st102{fill:#F77819;}
	.st103{fill:#F79AE1;}
	.st104{fill:#5E707A;}
	.st105{fill:#F93585;}
	.st106{fill:#F95D5D;}
	.st107{fill:#F9C19B;}
	.st108{fill:#F9CB58;}
	.st109{fill:#F9D2B2;}
	.st110{fill:#F9F07D;}
	.st111{fill:#F9F1D2;}
	.st112{fill:#F9F4B7;}
	.st113{fill:#F9F9E4;}
	.st114{fill:#5F1DAA;}
	.st115{fill:#5F9AD6;}
	.st116{fill:#C0C0C4;}
	.st117{fill:#91EA57;}
	.st118{fill:#C12727;}
	.st119{fill:#C191A0;}
	.st120{fill:#923BB7;}
	.st121{fill:#93A0A3;}
	.st122{fill:#93F9EA;}
	.st123{fill:#93FF5A;}
	.st124{fill:#C4833D;}
	.st125{fill:#95A2A5;}
	.st126{fill:#965514;}
	.st127{fill:#96562C;}
	.st128{fill:#2AF42F;}
	.st129{fill:#C5D7DD;}
	.st130{fill:#C68510;}
	.st131{fill:#C6A86D;}
	.st132{fill:#C6BB8D;}
	.st133{fill:#2C9DCE;}
	.st134{fill:#FBFCF2;}
	.st135{fill:#FC70B0;}
	.st136{fill:#FCE6C8;}
	.st137{fill:#FCF7E3;}
	.st138{fill:#C90D6B;}
	.st139{fill:#FDFEFF;}
	.st140{fill:#FDFFDC;}
	.st141{fill:#FF1A1A;}
	.st142{fill:#FF5252;}
	.st143{fill:#FF5B00;}
	.st144{fill:#FF6155;}
	.st145{fill:#FF630D;}
	.st146{fill:#FF6666;}
	.st147{fill:#FF7676;}
	.st148{fill:#FF7900;}
	.st149{fill:#FF860D;}
	.st150{fill:#FF8B00;}
	.st151{fill:#FF8F8F;}
	.st152{fill:#FF900B;}
	.st153{fill:#FF908A;}
	.st154{fill:#FF960B;}
	.st155{fill:#FF9C0D;}
	.st156{fill:#FFA9D4;}
	.st157{fill:#FFAA00;}
	.st158{fill:#FFAD40;}
	.st159{fill:#FFAF10;}
	.st160{fill:#FFB000;}
	.st161{fill:#FFBE08;}
	.st162{fill:#FFBF31;}
	.st163{fill:#FFC200;}
	.st164{fill:#FFCAE8;}
	.st165{fill:#FFCCF5;}
	.st166{fill:#FFD00B;}
	.st167{fill:#FFD039;}
	.st168{fill:#FFD400;}
	.st169{fill:#FFD833;}
	.st170{fill:#FFDB80;}
	.st171{fill:#FFDDD2;}
	.st172{fill:#FFE6D4;}
	.st173{fill:#FFE6EB;}
	.st174{fill:#FFE98D;}
	.st175{fill:#FFECD2;}
	.st176{fill:#FFF1D9;}
	.st177{fill:#FFF24D;}
	.st178{fill:#FFF3C2;}
	.st179{fill:#FFF4C7;}
	.st180{fill:#FFF800;}
	.st181{fill:#FFF80D;}
	.st182{fill:#FFF9DE;}
	.st183{fill:#FFFBD7;}
	.st184{fill:#FFFBEB;}
	.st185{fill:#FFFCC0;}
	.st186{fill:#FFFCDC;}
	.st187{fill:#FFFFFA;}
	.st188{fill:#FFFFFF;}
	.st189{fill:#63797F;}
	.st190{fill:#65E529;}
	.st191{fill:#66310E;}
	.st192{fill:#663C17;}
	.st193{fill:#9A5AE5;}
	.st194{fill:#CA30EF;}
	.st195{fill:#6892FC;}
	.st196{fill:#9CFFC4;}
	.st197{fill:#CC4306;}
	.st198{fill:#CC549E;}
	.st199{fill:#9E3256;}
	.st200{fill:#CDFFBB;}
	.st201{fill:#CE86AF;}
	.st202{fill:#CED9DD;}
	
		.st203{fill:none;stroke:#33363A;stroke-width:3;stroke-linecap:round;stroke-linejoin:round;stroke-miterlimit:10;stroke-dasharray:6;}
	.st204{fill:#CFE1E2;}
	.st205{fill:#33363A;}
	.st206{fill:#34C166;}
	.st207{fill:#364B5B;}
	.st208{fill:#3662CE;}
	.st209{fill:#36C6FF;}
	.st210{fill:#6ADB9A;}
	.st211{fill:#6D5C4D;}
	.st212{fill:#6EBDF9;}
	.st213{fill:#0031FF;}
	.st214{fill:#0062FF;}
	.st215{fill:#0068FF;}
	.st216{fill:#0086FF;}
	.st217{fill:#009BE8;}
	.st218{fill:#00AAFF;}
	.st219{fill:#D271FF;}
	.st220{fill:#D363A9;}
	.st221{fill:#D3964C;}
	.st222{fill:#D3DFE2;}
	.st223{fill:#D3E0E2;}
	.st224{fill:#D3EFF4;}
	.st225{fill:#063B66;}
	.st226{fill:#D60909;}
	.st227{fill:#D61D1D;}
	.st228{fill:#D7F0FF;}
	.st229{fill:#09B285;}
	.st230{fill:#D8D593;}
	.st231{fill:#D8E2EA;}
	.st232{fill:#D8E5EA;}
	.st233{fill:#3E5054;}
	.st234{fill:#D988FF;}
	.st235{fill:#D9E7E8;}
	.st236{fill:#702252;}
	.st237{fill:#70D3E0;}
	.st238{fill:#A02FF2;}
	.st239{fill:#A2F255;}
	.st240{fill:#A35616;}
	.st241{fill:#A3CCCC;}
	.st242{fill:#0A6ADD;}
	.st243{fill:#A5145D;}
	.st244{fill:#A57555;}
	.st245{fill:#77D6FC;}
	.st246{fill:#7815CE;}
	.st247{fill:#A7BBC1;}
	.st248{fill:#DBD279;}
	.st249{fill:#0D5C9E;}
	.st250{fill:#A83C11;}
	.st251{fill:#A8633D;}
	.st252{fill:#A8A3E5;}
	.st253{fill:#DCE6EA;}
	.st254{fill:#DCE7EA;}
	.st255{fill:#A962E8;}
	.st256{fill:#DD2466;}
	.st257{fill:#DDC38A;}
	.st258{fill:#DDD2B1;}
	.st259{fill:#DFE7E8;}
	.st260{fill:#42B1E8;}
	.st261{fill:#436377;}
	.st262{fill:#43B530;}
]]>
</style>
<g>
	<g>
		<g>
			<g>
				<g>
					<path class="st151" d="M108.281,42.967c-2.328,0-4.604-1.16-5.934-3.276C94.237,26.783,81.21,19.077,67.5,19.077
						S40.763,26.783,32.653,39.69c-2.056,3.273-6.377,4.26-9.651,2.202c-3.273-2.057-4.26-6.378-2.203-9.651
						C31.486,15.232,48.944,5.077,67.5,5.077s36.014,10.155,46.702,27.164c2.057,3.273,1.07,7.595-2.203,9.651
						C110.842,42.62,109.554,42.967,108.281,42.967z"/>
				</g>
			</g>
			<g>
				<g>
					<path class="st141" d="M67.5,59.097"/>
				</g>
			</g>
			<g>
				<g>
					<path class="st151" d="M67.5,129.423c-31.476,0-57.084-28.676-57.084-63.923c0-3.866,3.134-7,7-7s7,3.134,7,7
						c0,27.527,19.328,49.923,43.084,49.923s43.084-22.396,43.084-49.923c0-3.866,3.134-7,7-7s7,3.134,7,7
						C124.584,100.747,98.976,129.423,67.5,129.423z"/>
				</g>
			</g>
			<g>
				<path class="st141" d="M67.5,13.077c-18.454,0-35.819,10.047-46.521,26.887c0.522,0.75,1.2,1.412,2.023,1.929
					c3.274,2.058,7.595,1.071,9.651-2.202C40.763,26.783,53.79,19.077,67.5,19.077s26.737,7.706,34.847,20.613
					c1.33,2.116,3.606,3.276,5.934,3.276c1.272,0,2.561-0.347,3.717-1.074c0.823-0.517,1.501-1.178,2.023-1.929
					C103.319,23.124,85.954,13.077,67.5,13.077z"/>
			</g>
			<g>
				<path class="st141" d="M117.584,66.5c-3.866,0-7,3.134-7,7c0,27.527-19.328,49.923-43.084,49.923S24.416,101.027,24.416,73.5
					c0-3.866-3.134-7-7-7c-3.208,0-5.906,2.161-6.733,5.105c2.755,32.393,27.181,57.817,56.817,57.817s54.062-25.425,56.817-57.817
					C123.49,68.661,120.792,66.5,117.584,66.5z"/>
			</g>
		</g>
		<g>
			<g>
				<g>
					<path class="st205" d="M26.72,44.967c-1.597,0-3.159-0.451-4.517-1.305c-3.968-2.493-5.168-7.75-2.675-11.719
						C30.492,14.494,48.426,4.077,67.5,4.077s37.008,10.417,47.972,27.866c2.494,3.969,1.293,9.226-2.675,11.72
						c-1.356,0.853-2.917,1.304-4.515,1.304c-2.945,0-5.638-1.487-7.204-3.979C93.243,28.521,80.691,21.077,67.5,21.077
						s-25.743,7.443-33.577,19.911C32.358,43.479,29.666,44.967,26.72,44.967z M67.5,7.077c-18.036,0-35.02,9.893-45.432,26.462
						c-1.613,2.568-0.837,5.97,1.731,7.583c0.879,0.553,1.889,0.845,2.92,0.845c1.907,0,3.65-0.962,4.663-2.574
						C39.769,26.046,53.271,18.077,67.5,18.077s27.731,7.969,36.117,21.315c1.013,1.611,2.757,2.574,4.664,2.574
						c1.032,0,2.041-0.292,2.918-0.844c2.569-1.614,3.345-5.016,1.732-7.584C102.52,16.97,85.536,7.077,67.5,7.077z"/>
				</g>
			</g>
			<g>
				<g>
					<path class="st52" d="M67.5,59.597"/>
				</g>
			</g>
			<g>
				<g>
					<path class="st205" d="M67.5,131.423c-32.303,0-58.584-29.349-58.584-65.423c0-4.687,3.813-8.5,8.5-8.5s8.5,3.813,8.5,8.5
						c0,26.7,18.654,48.423,41.584,48.423S109.084,92.7,109.084,66c0-4.687,3.813-8.5,8.5-8.5s8.5,3.813,8.5,8.5
						C126.084,102.074,99.803,131.423,67.5,131.423z M17.416,60.5c-3.033,0-5.5,2.467-5.5,5.5c0,34.42,24.935,62.423,55.584,62.423
						S123.084,100.42,123.084,66c0-3.033-2.467-5.5-5.5-5.5s-5.5,2.467-5.5,5.5c0,28.354-20,51.423-44.584,51.423
						S22.916,94.354,22.916,66C22.916,62.967,20.449,60.5,17.416,60.5z"/>
				</g>
			</g>
		</g>
	</g>
	<g>
		<g>
			<circle class="st151" cx="67.5" cy="67.499" r="15.736"/>
		</g>
		<g>
			<path class="st141" d="M83.236,67.499c0,6.658-7.046,12.054-15.736,12.054c-8.689,0-15.735-5.396-15.735-12.054
				c0-6.65,7.046-12.054,15.735-12.054C76.19,55.445,83.236,60.849,83.236,67.499z"/>
		</g>
		<g>
			<path class="st188" d="M51.764,67.499c0,8.691,7.046,15.737,15.735,15.737c8.69,0,15.736-7.046,15.736-15.737H51.764z"/>
		</g>
		<g>
			<path class="st253" d="M67.5,79.553c8.69,0,15.736-5.396,15.736-12.054H51.764C51.764,74.157,58.81,79.553,67.5,79.553z"/>
		</g>
		<g>
			<path class="st205" d="M67.5,84.736c-9.503,0-17.235-7.732-17.235-17.237c0-9.503,7.732-17.234,17.235-17.234
				c9.504,0,17.236,7.731,17.236,17.234C84.736,77.004,77.003,84.736,67.5,84.736z M67.5,53.265c-7.85,0-14.235,6.386-14.235,14.234
				c0,7.851,6.386,14.237,14.235,14.237c7.85,0,14.236-6.387,14.236-14.237C81.736,59.65,75.35,53.265,67.5,53.265z"/>
		</g>
		<g>
			<path class="st205" d="M83.236,68.999H51.764c-0.829,0-1.5-0.672-1.5-1.5s0.671-1.5,1.5-1.5h31.472c0.829,0,1.5,0.672,1.5,1.5
				S84.064,68.999,83.236,68.999z"/>
		</g>
		<g>
			<g>
				<path class="st247" d="M71.178,65.625c2.032,2.031,2.032,5.324,0,7.355c-2.03,2.034-5.325,2.034-7.357,0
					c-2.031-2.031-2.031-5.324,0-7.355C65.853,63.592,69.148,63.592,71.178,65.625z"/>
			</g>
			<g>
				<circle class="st188" cx="67.5" cy="67.533" r="5.202"/>
			</g>
			<g>
				<path class="st232" d="M63.821,71.211c-2.031-2.029-2.031-5.326,0-7.356c2.032-2.031,5.327-2.031,7.357,0"/>
			</g>
			<g>
				<path class="st205" d="M67.5,74.236c-1.791,0-3.475-0.698-4.741-1.965c-1.265-1.265-1.962-2.947-1.962-4.738
					s0.697-3.475,1.963-4.739c1.266-1.266,2.95-1.963,4.74-1.963s3.473,0.697,4.739,1.963c1.266,1.265,1.963,2.948,1.963,4.74
					c0,1.791-0.698,3.474-1.964,4.738C70.974,73.538,69.291,74.236,67.5,74.236z M67.5,63.831c-0.99,0-1.92,0.385-2.619,1.084
					s-1.084,1.629-1.084,2.618s0.385,1.919,1.083,2.616c1.4,1.401,3.838,1.4,5.236,0.002c0.701-0.7,1.085-1.629,1.085-2.618
					c0-0.989-0.385-1.919-1.084-2.617C69.419,64.216,68.489,63.831,67.5,63.831z"/>
			</g>
		</g>
	</g>
</g>
</svg>
